<svg width="70" viewBox="0 0 418 247" fill="none" xmlns="http://www.w3.org/2000/svg">
  <path d="M338.819 51.0621L332.021 52.2502L338.427 88.896L345.225 87.7078L338.819 51.0621Z" fill="#4B2B61" />
  <path d="M295.528 53.4546L288.73 54.6428L295.136 91.2885L301.933 90.1004L295.528 53.4546Z" fill="#4B2B61" />
  <path d="M316.91 40.7085L304.005 42.9644L316.765 115.96L329.67 113.704L316.91 40.7085Z" fill="#4B2B61" />
  <path d="M329.672 113.681L316.771 115.881L316.572 114.681L324.371 113.381L311.771 41.5812L316.971 40.6812L329.672 113.681Z" fill="#2E1642" />
  <path d="M322.271 55.6812L304.071 58.8812C302.171 59.1812 302.671 62.1812 304.571 61.8812L322.771 58.6812C324.671 58.2812 324.171 55.2812 322.271 55.6812Z" fill="#FF1F17" />
  <path d="M323.372 61.9812L305.172 65.1812C303.272 65.4812 303.772 68.4812 305.672 68.1812L323.872 64.9812C325.772 64.5812 325.272 61.5812 323.372 61.9812Z" fill="#FF1F17" />
  <path d="M324.471 68.1812L306.271 71.3812C304.371 71.6812 304.871 74.6812 306.771 74.3812L324.971 71.1812C326.871 70.8812 326.371 67.8812 324.471 68.1812Z" fill="#FF1F17" />
  <path d="M325.571 74.481L307.371 77.681C305.471 77.981 305.971 80.981 307.871 80.681L326.071 77.481C327.971 77.181 327.471 74.181 325.571 74.481Z" fill="#FF1F17" />
  <path d="M326.671 80.7811L308.471 83.9811C306.571 84.2811 307.071 87.2811 308.971 86.9811L327.171 83.7811C329.071 83.4811 328.571 80.4811 326.671 80.7811Z" fill="#FF1F17" />
  <path d="M327.771 87.0811L309.571 90.2811C307.671 90.5811 308.171 93.5811 310.071 93.2811L328.271 90.0811C330.171 89.7811 329.671 86.7811 327.771 87.0811Z" fill="#FF1F17" />
  <path d="M328.872 93.381L310.672 96.581C308.772 96.881 309.272 99.881 311.172 99.581L329.372 96.381C331.272 96.081 330.772 92.981 328.872 93.381Z" fill="#FF1F17" />
  <path d="M329.971 99.6811L311.771 102.881C309.871 103.181 310.371 106.181 312.271 105.881L330.471 102.681C332.371 102.381 331.871 99.2811 329.971 99.6811Z" fill="#FF1F17" />
  <path d="M321.171 49.3811L302.971 52.5811C301.071 52.8811 301.571 55.8811 303.471 55.5811L321.671 52.3811C323.571 51.9811 323.071 48.9811 321.171 49.3811Z" fill="#FF1F17" />
  <path d="M71.9997 100.719L78.7969 101.907L85.2027 65.2618L78.4055 64.0736L71.9997 100.719Z" fill="#4B2B61" />
  <path d="M115.403 103L122.2 104.188L128.606 67.5423L121.809 66.3541L115.403 103Z" fill="#4B2B61" />
  <path d="M87.5464 126.531L100.451 128.787L113.211 55.7912L100.306 53.5354L87.5464 126.531Z" fill="#4B2B61" />
  <path d="M87.5718 126.581L100.472 128.781L100.672 127.581L92.8718 126.281L105.472 54.4811L100.372 53.5811L87.5718 126.581Z" fill="#2E1642" />
  <path d="M94.9719 68.5813L113.172 71.7813C115.072 72.0813 114.572 75.0813 112.672 74.7813L94.4719 71.5813C92.5719 71.1813 93.0719 68.1813 94.9719 68.5813Z" fill="#FF1F17" />
  <path d="M93.8718 74.7813L112.072 77.9813C113.972 78.2813 113.472 81.2813 111.572 80.9813L93.3718 77.7813C91.4718 77.4813 91.9718 74.4813 93.8718 74.7813Z" fill="#FF1F17" />
  <path d="M92.7717 81.0814L110.972 84.2814C112.872 84.5814 112.372 87.5814 110.472 87.2814L92.2717 84.0814C90.3717 83.7814 90.8717 80.7814 92.7717 81.0814Z" fill="#FF1F17" />
  <path d="M91.6716 87.3812L109.872 90.5812C111.772 90.8812 111.272 93.8812 109.372 93.5812L91.1716 90.3812C89.2716 90.0812 89.7716 87.0812 91.6716 87.3812Z" fill="#FF1F17" />
  <path d="M90.5715 93.6812L108.771 96.8812C110.671 97.1812 110.171 100.181 108.271 99.8812L90.0715 96.6812C88.1715 96.3812 88.6715 93.3812 90.5715 93.6812Z" fill="#FF1F17" />
  <path d="M89.4719 99.9814L107.672 103.181C109.572 103.481 109.072 106.481 107.172 106.181L88.9719 102.981C87.0719 102.681 87.5719 99.5814 89.4719 99.9814Z" fill="#FF1F17" />
  <path d="M88.3718 106.281L106.572 109.481C108.472 109.781 107.972 112.781 106.072 112.481L87.8718 109.281C85.9718 108.981 86.4718 105.881 88.3718 106.281Z" fill="#FF1F17" />
  <path d="M87.2717 112.581L105.472 115.781C107.372 116.081 106.872 119.081 104.972 118.781L86.7717 115.581C84.8717 115.181 85.3717 112.181 87.2717 112.581Z" fill="#FF1F17" />
  <path d="M96.0715 62.2813L114.271 65.4813C116.171 65.7813 115.671 68.7813 113.771 68.4813L95.5715 65.2813C93.6715 64.8813 94.1715 61.8813 96.0715 62.2813Z" fill="#FF1F17" />
  <path d="M134.117 132.806L140.224 140.469L213.654 81.9508L207.547 74.2872L134.117 132.806Z" fill="#2E1642" />
  <path d="M208.073 74.2241L201.966 81.8877L275.396 140.406L281.503 132.743L208.073 74.2241Z" fill="#2E1642" />
  <path d="M149.33 134.007L267.23 134.007L267.23 126.307L149.33 126.307L149.33 134.007Z" fill="#2E1642" />
  <path d="M149.33 158.138L267.23 158.138L267.23 148.538L149.33 148.538L149.33 158.138Z" fill="#4B2B61" />
  <path d="M200.218 155.455L209.165 152.917L192.082 92.6958L183.135 95.2338L200.218 155.455Z" fill="#4B2B61" />
  <path d="M232.833 95.2369L223.886 92.699L206.803 152.92L215.749 155.458L232.833 95.2369Z" fill="#4B2B61" />
  <path d="M198.372 143.781H217.572C219.472 143.781 221.072 145.381 221.072 147.281V159.481C221.072 161.381 219.472 162.981 217.572 162.981H198.372C196.472 162.981 194.872 161.381 194.872 159.481V147.281C194.872 145.281 196.472 143.781 198.372 143.781Z" fill="#5F1021" />
	<path d="M194.871 152.481C195.171 155.481 193.371 163.081 198.371 162.981H217.571C222.571 163.081 220.771 155.481 221.071 152.481C221.071 154.381 219.471 155.981 217.571 155.981H198.371C196.471 155.981 194.871 154.481 194.871 152.481Z" fill="#4C081A" />
<g class='wheel' >
	<path d="M252.072 154.881C257.372 154.281 255.572 146.781 257.272 143.081C258.572 138.881 251.272 138.681 253.172 134.281C254.872 131.681 255.772 122.881 260.672 125.081C262.272 125.781 264.172 125.081 265.072 123.581C266.372 119.281 273.772 114.981 270.372 110.381C266.472 106.781 274.072 102.281 275.872 99.7811C279.172 96.2811 282.172 102.881 285.572 100.081C287.972 98.2811 290.372 96.5811 292.972 95.0811C296.872 92.9811 291.872 87.6811 296.272 85.9811L303.472 82.8811C307.772 80.8811 308.172 88.0811 312.272 86.7811C316.172 84.6811 324.572 86.8811 325.372 81.2811C325.172 75.9811 333.772 78.1811 336.772 77.7811C341.572 77.5811 338.972 84.4811 343.372 84.8811C346.372 85.2811 349.272 85.8811 352.072 86.5811C356.272 87.8811 356.472 80.5811 360.872 82.5811C377.972 88.3811 365.572 89.2811 371.572 94.4811C374.572 96.1811 377.372 98.0811 380.072 100.081C383.472 102.881 386.472 96.2811 389.772 99.7811C391.472 102.381 399.272 106.581 395.272 110.381C391.972 114.581 398.572 118.481 399.972 122.381C402.072 126.281 407.372 121.281 409.072 125.681C417.072 141.881 407.672 133.681 408.272 141.681C409.172 144.981 409.872 148.281 410.272 151.681C410.672 156.081 417.472 153.481 417.272 158.281V166.081C417.472 170.881 410.572 168.281 410.172 172.681C410.472 176.781 405.872 182.981 410.572 185.581C415.472 187.381 410.372 194.481 409.572 197.481C407.972 201.981 402.572 197.081 400.572 200.981C398.872 203.981 396.972 206.781 394.972 209.481C392.172 212.881 398.772 215.881 395.272 219.181L389.772 224.681C386.472 228.181 383.472 221.581 380.072 224.381C377.672 226.181 375.272 227.881 372.672 229.381C368.772 231.481 373.772 236.781 369.372 238.481C353.172 246.481 361.372 237.081 353.372 237.681C350.072 238.581 346.772 239.281 343.372 239.681C338.972 240.081 341.572 246.881 336.772 246.681H328.972C324.172 246.881 326.772 239.981 322.372 239.581C319.372 239.181 316.472 238.581 313.672 237.881C309.472 236.581 309.272 243.881 304.872 241.881C287.772 236.081 300.172 235.181 294.172 229.981C291.172 228.281 288.372 226.381 285.672 224.381C282.272 221.581 279.272 228.181 275.972 224.681C262.472 212.681 274.272 216.781 270.772 209.481C267.672 206.781 266.572 199.081 261.372 200.681C256.572 202.881 255.272 194.181 253.672 191.581C251.672 187.281 258.872 186.881 257.572 182.781C256.672 179.481 255.972 176.181 255.572 172.781C255.172 168.381 248.372 170.981 248.572 166.181C249.072 163.281 246.572 154.781 252.072 154.881Z" fill="#5F1021" />
	<path d="M291.372 162.381C292.272 216.981 373.572 216.981 374.472 162.381C373.572 107.781 292.272 107.781 291.372 162.381Z" fill="#4C081A" />
	<path d="M332.972 101.681C412.772 103.081 412.772 221.681 332.972 223.081C253.172 221.681 253.172 103.081 332.972 101.681ZM332.972 219.181C407.672 217.881 407.672 106.881 332.972 105.481C258.272 106.881 258.272 217.881 332.972 219.181Z" fill="#4C081A" />
	<path opacity="0.6" d="M248.472 158.481V166.281C248.272 171.081 255.172 168.481 255.572 172.881C255.972 176.681 257.072 180.181 257.672 183.881C257.772 187.381 251.772 187.781 253.672 191.781C255.272 194.381 256.572 203.081 261.372 200.881C262.972 200.181 264.872 200.781 265.772 202.381C267.072 206.281 273.872 210.181 270.472 214.381C266.672 217.981 274.172 222.481 275.972 224.981C279.272 228.481 282.272 221.881 285.672 224.681C288.372 226.781 291.272 228.581 294.172 230.281C300.272 235.481 287.772 236.381 304.872 242.181C309.272 244.081 309.472 236.881 313.672 238.181C316.472 238.881 319.472 239.481 322.372 239.881C326.772 240.281 324.272 247.081 328.972 246.981H336.772C341.572 247.181 338.972 240.281 343.372 239.881C346.772 239.381 350.172 238.781 353.372 237.881C361.472 237.381 353.272 246.681 369.372 238.681C373.872 236.981 368.872 231.681 372.672 229.581C375.172 228.081 377.672 226.381 380.072 224.581C387.372 221.081 383.272 232.781 395.272 219.381C398.772 216.181 392.172 213.081 394.972 209.681C397.072 206.981 398.872 204.181 400.572 201.181C405.772 195.081 406.672 207.581 412.472 190.481C414.372 186.181 407.172 185.881 408.472 181.681C409.172 178.881 409.772 175.881 410.172 172.981C410.572 168.581 417.372 171.181 417.272 166.381V158.581C417.472 153.781 410.572 156.381 410.172 151.981C409.772 148.281 408.672 144.681 407.972 141.081C407.872 137.581 413.872 137.281 411.972 133.181C410.472 131.381 409.472 123.581 406.072 123.881C426.172 244.081 240.972 245.581 259.172 125.081C257.772 125.081 256.472 125.981 255.972 127.281C255.672 128.281 252.572 134.981 252.772 135.881C252.572 139.281 258.372 139.481 257.072 143.281C256.372 146.081 255.772 149.081 255.372 151.981C255.172 156.181 248.272 153.681 248.472 158.481Z" fill="#4C081A" />
	<path d="M297.472 162.381C298.972 209.281 366.972 209.281 368.372 162.381C366.972 115.481 298.972 115.481 297.472 162.381Z" fill="#3D332E" />
	<path d="M332.172 164.181L329.172 194.881C331.572 195.181 334.172 195.181 336.672 194.881L333.672 164.181C333.672 163.781 333.572 162.781 333.472 162.381C333.472 161.981 333.572 160.981 333.672 160.581L336.672 129.881C334.272 129.581 331.672 129.581 329.172 129.881C329.272 132.381 332.772 162.481 332.172 164.181Z" fill="#63534C" />
	<path d="M300.172 162.381C300.172 163.681 300.272 164.881 300.372 166.081L331.072 163.081C331.472 163.081 332.472 162.981 332.872 162.881C333.272 162.881 334.272 162.981 334.672 163.081L365.372 166.081C365.672 163.681 365.672 161.081 365.372 158.581L334.672 161.581C334.272 161.581 333.272 161.681 332.872 161.781C332.472 161.781 331.472 161.681 331.072 161.581L300.372 158.581C300.272 159.881 300.172 161.081 300.172 162.381Z" fill="#63534C" />
	<path d="M307.272 182.681C308.872 184.681 310.572 186.381 312.572 187.981L332.172 164.181C332.372 163.981 333.072 163.181 333.172 162.981C333.272 162.881 333.372 162.681 333.472 162.681C333.672 162.581 334.472 161.881 334.672 161.681L358.472 142.081C356.872 140.081 355.172 138.381 353.172 136.781L333.572 160.581C333.372 160.781 332.672 161.581 332.572 161.781C332.472 161.881 332.372 162.081 332.172 162.081C331.972 162.181 331.172 162.881 330.972 163.081L307.272 182.681Z" fill="#63534C" />
	<path d="M307.272 142.081L331.072 161.681C331.472 162.081 332.272 162.581 332.672 163.081C332.772 163.281 333.472 164.081 333.672 164.281L353.272 188.081C355.272 186.481 356.972 184.781 358.572 182.781L334.772 163.181C334.372 162.781 333.572 162.281 333.172 161.781C333.072 161.581 332.372 160.781 332.172 160.581L312.572 136.781C310.672 138.281 308.872 140.081 307.272 142.081Z" fill="#63534C" />
	<path d="M336.772 129.081C378.172 134.581 374.772 195.081 332.972 195.881C286.172 194.081 290.072 125.581 336.772 129.081ZM336.572 194.081C376.072 188.781 372.772 131.081 332.972 130.381C288.372 132.181 292.072 197.481 336.572 194.081Z" fill="#63534C" />
	<path d="M323.872 162.381C323.972 174.181 341.872 174.181 341.872 162.381C341.872 150.581 323.972 150.581 323.872 162.381Z" fill="#42252E" />
  <path opacity="0.5" d="M297.472 162.381C299.272 214.381 377.472 205.381 367.472 154.381C364.172 193.681 305.872 197.181 297.672 158.881C297.572 160.081 297.472 161.181 297.472 162.381Z" fill="#231914" />
</g>
<g class='wheel'>
	<path d="M3.57146 154.881C8.87146 154.281 7.07146 146.781 8.77146 143.081C10.0715 138.881 2.77146 138.681 4.67146 134.281C6.37146 131.681 7.27146 122.881 12.1715 125.081C13.7715 125.781 15.6715 125.081 16.5715 123.581C17.8715 119.281 25.2715 114.981 21.8715 110.381C17.9715 106.781 25.5715 102.281 27.3715 99.7811C30.6715 96.2811 33.6715 102.881 37.0715 100.081C39.4715 98.2811 41.8715 96.5811 44.4715 95.0811C48.3715 92.9811 43.3715 87.6811 47.7715 85.9811L54.9715 82.8811C59.2715 80.8811 59.6715 88.0811 63.7715 86.7811C67.6715 84.6811 76.0715 86.8811 76.8715 81.2811C76.6715 75.9811 85.2715 78.1811 88.2715 77.7811C93.0715 77.5811 90.4715 84.4811 94.8715 84.8811C97.8715 85.2811 100.771 85.8811 103.571 86.5811C107.771 87.8811 107.971 80.5811 112.371 82.5811C129.471 88.3811 117.071 89.2811 123.071 94.4811C126.071 96.1811 128.871 98.0811 131.571 100.081C134.971 102.881 137.971 96.2811 141.271 99.7811C142.971 102.381 150.771 106.581 146.771 110.381C143.471 114.581 150.071 118.481 151.471 122.381C153.571 126.281 158.871 121.281 160.571 125.681C168.571 141.881 159.171 133.681 159.771 141.681C160.671 144.981 161.371 148.281 161.771 151.681C162.171 156.081 168.971 153.481 168.771 158.281V166.081C168.971 170.881 162.071 168.281 161.671 172.681C161.971 176.781 157.371 182.981 162.071 185.581C166.971 187.381 161.871 194.481 161.071 197.481C159.471 201.981 154.071 197.081 152.071 200.981C150.371 203.981 148.471 206.781 146.471 209.481C143.671 212.881 150.271 215.881 146.771 219.181L141.271 224.681C137.971 228.181 134.971 221.581 131.571 224.381C129.171 226.181 126.771 227.881 124.171 229.381C120.271 231.481 125.271 236.781 120.871 238.481C104.671 246.481 112.871 237.081 104.871 237.681C101.571 238.581 98.2715 239.281 94.8715 239.681C90.4715 240.081 93.0715 246.881 88.2715 246.681H80.4715C75.6715 246.881 78.2715 239.981 73.8715 239.581C70.8715 239.181 67.9715 238.581 65.1715 237.881C60.9715 236.581 60.7715 243.881 56.3715 241.881C39.2715 236.081 51.6715 235.181 45.6715 229.981C42.6715 228.281 39.8715 226.381 37.1715 224.381C33.7715 221.581 30.7715 228.181 27.4715 224.681C13.9715 212.681 25.7715 216.781 22.2715 209.481C19.1715 206.781 18.0715 199.081 12.8715 200.681C8.07146 202.881 6.77146 194.181 5.17146 191.581C3.17146 187.281 10.3715 186.881 9.07146 182.781C8.17146 179.481 7.47146 176.181 7.07146 172.781C6.67146 168.381 -0.128543 170.981 0.0714572 166.181C0.671457 163.281 -1.82854 154.781 3.57146 154.881Z" fill="#5F1021" />
	<path d="M42.8716 162.381C43.7716 216.981 125.072 216.981 125.972 162.381C125.072 107.781 43.8716 107.781 42.8716 162.381Z" fill="#4C081A" />
	<path d="M84.4716 101.681C164.272 103.081 164.272 221.681 84.4716 223.081C4.67158 221.681 4.67158 103.081 84.4716 101.681ZM84.4716 219.181C159.172 217.881 159.172 106.881 84.4716 105.481C9.77159 106.881 9.77159 217.881 84.4716 219.181Z" fill="#4C081A" />
	<path opacity="0.6" d="M0.0712204 158.481V166.281C-0.12878 171.081 6.77122 168.481 7.17122 172.881C7.57122 176.681 8.67122 180.181 9.27122 183.881C9.37122 187.381 3.37122 187.781 5.27122 191.781C6.87122 194.381 8.17122 203.081 12.9712 200.881C14.5712 200.181 16.4712 200.781 17.3712 202.381C18.6712 206.281 25.4712 210.181 22.0712 214.381C18.2712 217.981 25.7712 222.481 27.5712 224.981C30.8712 228.481 33.8712 221.881 37.2712 224.681C39.9712 226.781 42.8712 228.581 45.7712 230.281C51.8712 235.481 39.3712 236.381 56.4712 242.181C60.8712 244.081 61.0712 236.881 65.2712 238.181C68.0712 238.881 71.0712 239.481 73.9712 239.881C78.3712 240.281 75.8712 247.081 80.5712 246.981H88.3712C93.1712 247.181 90.5712 240.281 94.9712 239.881C98.3712 239.381 101.771 238.781 104.971 237.881C113.071 237.381 104.871 246.681 120.971 238.681C125.471 236.981 120.471 231.681 124.271 229.581C126.771 228.081 129.271 226.381 131.671 224.581C138.971 221.081 134.871 232.781 146.871 219.381C150.371 216.181 143.771 213.081 146.571 209.681C148.671 206.981 150.471 204.181 152.171 201.181C157.371 195.081 158.271 207.581 164.071 190.481C165.971 186.181 158.771 185.881 160.071 181.681C160.771 178.881 161.371 175.881 161.771 172.981C162.171 168.581 168.971 171.181 168.871 166.381V158.581C169.071 153.781 162.171 156.381 161.771 151.981C161.371 148.281 160.271 144.681 159.571 141.081C159.471 137.581 165.471 137.281 163.571 133.181C162.071 131.381 161.071 123.581 157.671 123.881C177.771 244.081 -7.42878 245.581 10.7712 125.081C9.37122 125.081 8.07122 125.981 7.57122 127.281C7.27122 128.281 4.17122 134.981 4.37122 135.881C4.17122 139.281 9.97122 139.481 8.67122 143.281C7.97122 146.081 7.37122 149.081 6.97122 151.981C6.67122 156.181 -0.12878 153.681 0.0712204 158.481Z" fill="#4C081A" />
	<path d="M48.9717 162.381C50.4717 209.281 118.472 209.281 119.872 162.381C118.472 115.481 50.4717 115.481 48.9717 162.381Z" fill="#3D332E" />
	<path d="M83.6714 164.181L80.6714 194.881C83.0714 195.181 85.6714 195.181 88.1714 194.881L85.1714 164.181C85.1714 163.781 85.0714 162.781 84.9714 162.381C84.9714 161.981 85.0714 160.981 85.1714 160.581L88.1714 129.881C85.7714 129.581 83.1714 129.581 80.6714 129.881C80.7714 132.381 84.2714 162.481 83.6714 164.181Z" fill="#63534C" />
	<path d="M51.7715 162.381C51.7715 163.681 51.8715 164.881 51.9715 166.081L82.6715 163.081C83.0715 163.081 84.0715 162.981 84.4715 162.881C84.8715 162.881 85.8715 162.981 86.2715 163.081L116.971 166.081C117.271 163.681 117.271 161.081 116.971 158.581L86.2715 161.581C85.8715 161.581 84.8715 161.681 84.4715 161.781C84.0715 161.781 83.0715 161.681 82.6715 161.581L51.9715 158.581C51.8715 159.881 51.7715 161.081 51.7715 162.381Z" fill="#63534C" />
	<path d="M58.8716 182.681C60.4716 184.681 62.1716 186.381 64.1716 187.981L83.7716 164.181C83.9716 163.981 84.6716 163.181 84.7716 162.981C84.8716 162.881 84.9716 162.681 85.0716 162.681C85.2716 162.581 86.0716 161.881 86.2716 161.681L110.072 142.081C108.472 140.081 106.772 138.381 104.772 136.781L85.1716 160.581C84.9716 160.781 84.2716 161.581 84.1716 161.781C84.0716 161.881 83.9716 162.081 83.8716 162.081C83.6716 162.181 82.8716 162.881 82.6716 163.081C82.6716 163.181 58.8716 182.681 58.8716 182.681Z" fill="#63534C" />
	<path d="M58.8716 142.081L82.6716 161.681C83.0716 162.081 83.8716 162.581 84.2716 163.081C84.3716 163.281 85.0716 164.081 85.2716 164.281L104.872 188.081C106.872 186.481 108.572 184.781 110.172 182.781L86.3716 163.181C85.9716 162.781 85.1716 162.281 84.7716 161.781C84.6716 161.581 83.9716 160.781 83.7716 160.581L64.1716 136.781C62.1716 138.281 60.3716 140.081 58.8716 142.081Z" fill="#63534C" />
	<path d="M88.2717 129.081C129.672 134.581 126.272 195.081 84.4717 195.881C37.7717 194.081 41.6717 125.581 88.2717 129.081ZM88.0717 194.081C127.572 188.781 124.272 131.081 84.4717 130.381C39.8717 132.181 43.6717 197.481 88.0717 194.081Z" fill="#63534C" />
	<path d="M75.4717 162.381C75.5717 174.181 93.4717 174.181 93.4717 162.381C93.4717 150.581 75.4717 150.581 75.4717 162.381Z" fill="#42252E" />
  <path opacity="0.5" d="M48.9717 162.381C50.7717 214.381 128.972 205.381 118.972 154.381C115.672 193.681 57.3717 197.181 49.1717 158.881C49.0717 160.081 48.9717 161.181 48.9717 162.381Z" fill="#231914" />
</g>
  <path d="M39.8716 61.281C39.9716 65.481 40.8716 69.381 42.4716 70.781C71.1716 70.381 146.872 55.581 169.072 109.581C170.672 110.581 176.072 111.281 183.372 111.681C205.072 113.081 243.572 112.081 246.872 109.581C284.772 55.581 324.472 65.081 374.572 68.181C381.472 59.581 360.672 41.881 350.772 41.981C333.372 40.881 286.472 40.981 285.872 40.981C285.872 40.981 272.272 15.481 266.472 11.281C260.672 7.08103 176.472 3.08103 114.972 14.281C108.872 15.381 106.572 42.281 106.572 42.281C106.572 42.281 48.7716 43.581 43.7716 47.781C40.4716 51.081 39.9716 56.381 39.8716 61.281Z" fill="#5F1021" />
  <path d="M39.8716 54.281C39.9716 58.481 40.8716 62.381 42.4716 63.781C71.1716 63.381 146.872 48.581 169.072 102.581C170.672 103.581 176.072 104.281 183.372 104.681C205.072 106.081 243.572 105.081 246.872 102.581C284.772 48.581 324.472 58.081 374.572 61.181C381.472 52.581 360.672 34.881 350.772 34.981C333.372 33.881 286.472 33.981 285.872 33.981C285.872 33.981 272.272 8.48102 266.472 4.28102C260.672 0.0810251 176.472 -3.91897 114.972 7.28102C108.872 8.38102 106.572 35.281 106.572 35.281C106.572 35.281 48.7716 36.581 43.7716 40.781C40.4716 44.081 39.9716 49.381 39.8716 54.281Z" fill="currentColor" />
  <path opacity="0.25" d="M181.072 97.5809C174.872 97.0809 170.472 96.4809 168.972 95.5809C134.672 24.5809 39.9717 71.8809 39.9717 51.1809C40.2717 47.1809 41.0717 43.2809 43.7717 40.6809C48.7717 36.4809 106.572 35.1809 106.572 35.1809C106.572 35.1809 162.072 42.8809 181.072 97.5809Z" fill="white" />
  <path opacity="0.7" d="M39.8716 54.281C39.8716 54.581 39.8716 54.881 39.8716 55.281C40.1716 50.981 40.8716 46.681 43.7716 43.881C48.7716 39.681 106.572 38.381 106.572 38.381C106.572 38.381 108.872 11.481 114.972 10.381C176.472 -0.918976 260.672 3.18103 266.472 7.38102C272.272 11.581 285.872 37.081 285.872 37.081C286.872 37.181 332.972 36.981 350.772 38.081C360.572 38.781 373.672 49.681 375.872 58.981C377.472 49.381 360.772 35.381 350.772 34.981C333.372 33.881 286.472 33.981 285.872 33.981C285.872 33.981 272.272 8.48102 266.472 4.28102C260.672 0.0810251 176.472 -3.91897 114.972 7.28102C108.872 8.38102 106.572 35.281 106.572 35.281C106.572 35.281 48.7716 36.581 43.7716 40.781C40.4716 44.081 39.9716 49.381 39.8716 54.281Z" fill="white" />
  <path d="M39.8716 54.281C59.6716 55.681 64.2716 40.781 41.6716 43.781C40.2716 46.981 39.8716 50.881 39.8716 54.281Z" fill="#63DBEB" />
  <path d="M40.3716 48.0809C44.0716 47.1809 46.8716 45.5809 47.9716 43.6809C45.9716 43.6809 43.6716 43.7809 41.5716 43.8809C41.1716 45.0809 40.6716 46.4809 40.3716 48.0809Z" fill="#8FF5FF" />
  <path d="M39.8716 54.281C46.5716 55.381 58.5716 51.981 56.7716 46.481C55.5716 50.281 45.8716 52.881 40.0716 51.881C40.0716 51.481 40.0716 51.081 40.0716 50.681C39.9716 51.981 39.8716 53.181 39.8716 54.281Z" fill="#63DBEB" />
  <path d="M346.272 44.8809C349.272 47.5809 368.972 48.3809 368.172 44.0809C361.972 37.8809 353.972 34.3809 345.372 34.7809C343.672 37.6809 344.272 42.7809 346.272 44.8809Z" fill="#63DBEB" />
  <path d="M349.972 34.981C351.372 40.181 356.372 39.481 362.972 39.881C358.872 37.081 354.372 35.181 349.972 34.981Z" fill="#8FF5FF" />
  <path d="M346.271 44.881C349.371 47.581 368.771 48.381 368.171 44.081C361.771 44.681 344.371 47.681 344.471 37.781C344.171 40.381 344.871 43.381 346.271 44.881Z" fill="#63DBEB" />
  <path opacity="0.2" d="M279.472 37.681C278.972 34.481 267.972 11.081 263.072 9.08101C258.272 7.08101 216.872 4.38101 212.672 6.98101C208.972 9.28101 233.972 83.781 235.272 88.181C235.872 90.181 245.272 89.581 246.772 88.181C248.272 86.781 251.072 75.281 270.772 61.881C287.872 50.381 279.472 37.681 279.472 37.681Z" fill="black" />
  <path d="M175.271 13.0809L180.471 30.0809C180.971 31.6809 182.471 32.7809 184.171 32.7809H207.971C210.571 32.7809 212.371 30.2809 211.671 27.8809C211.671 27.6809 206.271 10.9809 206.271 10.7809C205.771 9.18092 204.271 8.08092 202.571 8.08092H178.971C176.371 7.98092 174.471 10.5809 175.271 13.0809Z" fill="#63DBEB" />
  <path d="M189.472 7.98096L203.972 32.781C207.472 33.081 212.772 32.881 211.672 27.881L200.072 8.08096H189.472V7.98096Z" fill="#8FF5FF" />
  <path d="M175.271 13.081C182.871 33.781 175.571 33.081 196.271 32.781L181.771 7.98099C178.371 7.58099 174.071 8.78099 175.271 13.081Z" fill="#8FF5FF" />
  <path d="M175.271 13.0809L175.571 13.9809C176.371 9.88092 200.071 12.6809 202.671 11.8809C204.371 11.8809 205.871 12.9809 206.371 14.5809L211.471 30.6809C213.371 28.9809 206.571 12.7809 206.371 10.7809C205.871 9.18092 204.371 8.08092 202.671 8.08092H178.971C176.371 7.98092 174.471 10.5809 175.271 13.0809Z" fill="#63DBEB" />
  <path d="M219.072 17.281L224.872 36.881C225.572 38.781 227.672 40.081 230.072 40.081C233.072 39.381 270.572 41.981 271.572 38.281C272.572 37.181 272.972 35.681 272.372 34.281L262.572 14.681C261.872 12.781 259.772 11.581 257.372 11.581H224.272C221.072 11.381 217.872 14.081 219.072 17.281Z" fill="#63DBEB" />
  <path d="M245.272 11.481L261.972 40.181C264.672 40.081 269.772 40.781 271.472 38.381L255.772 11.581H245.272V11.481Z" fill="#8FF5FF" />
  <path d="M220.572 12.681L236.672 40.181H254.172L237.372 11.581C234.672 11.881 222.772 10.481 220.572 12.681Z" fill="#8FF5FF" />
  <path d="M219.072 17.281L219.272 17.981C220.472 12.681 253.672 16.281 257.372 15.281C259.772 15.281 261.872 16.581 262.572 18.381L272.172 37.481C274.872 35.381 262.972 16.681 262.572 14.581C261.872 12.681 259.772 11.481 257.372 11.481H224.272C220.572 11.481 217.972 14.381 219.072 17.281Z" fill="#63DBEB" />
  <path d="M130.872 23.8809C137.172 24.2809 144.372 25.8809 152.572 33.5809C153.372 34.3809 154.572 34.7809 155.672 34.7809H156.072L163.572 34.3809C167.372 34.3809 173.872 34.2809 172.272 28.5809L166.472 12.4809C165.572 9.58094 162.272 9.58093 159.772 9.88093C151.272 10.3809 139.372 11.0809 130.872 11.5809C126.672 11.6809 126.772 16.5809 126.772 19.6809C126.772 21.7809 128.572 23.7809 130.872 23.8809Z" fill="#63DBEB" />
  <path d="M149.572 10.3809L163.572 34.2809C166.272 33.9809 171.572 34.6809 172.372 31.0809L159.872 9.68091L149.572 10.3809Z" fill="#8FF5FF" />
  <path d="M127.072 15.181L132.172 23.981C137.272 24.381 145.072 26.381 152.472 33.581C153.372 34.481 154.672 34.881 155.972 34.681L141.972 10.781C138.672 11.581 127.272 9.48101 127.072 15.181Z" fill="#8FF5FF" />
  <path d="M126.872 19.481C126.872 19.881 126.872 20.381 126.972 20.781C126.772 18.181 128.072 15.481 130.972 15.381L162.372 13.481C164.172 13.381 165.872 14.481 166.572 16.181L172.172 31.681C174.172 29.681 166.972 14.581 166.572 12.281C165.972 10.581 164.272 9.481 162.372 9.581L130.972 11.481C126.772 11.581 126.872 16.481 126.872 19.481Z" fill="#63DBEB" />
  <path opacity="0.35" d="M233.672 46.681C235.272 47.081 242.072 45.381 241.972 48.481C242.172 51.581 235.272 49.881 233.672 50.281C231.272 50.381 231.272 46.681 233.672 46.681Z" fill="black" />
  <path opacity="0.15" d="M39.8716 54.2809C39.9716 58.4809 40.8716 62.3809 42.4716 63.7809C70.8716 63.4809 146.872 48.5809 169.072 102.581C170.672 103.581 176.072 104.281 183.372 104.681C205.072 106.081 243.572 105.081 246.872 102.581C284.672 48.6809 324.472 57.9809 374.572 61.1809C376.472 59.4809 376.472 56.6809 375.172 53.5809C321.772 53.6809 289.572 38.0809 246.872 95.5809C243.572 98.1809 205.072 99.0809 183.372 97.6809C176.072 97.2809 170.672 96.4809 169.072 95.5809C134.272 23.5809 37.1716 73.2809 40.0716 50.1809C39.9716 51.5809 39.8716 52.9809 39.8716 54.2809Z" fill="black" />
</svg>