<svg width="120" viewBox="0 0 338 163" fill="none" xmlns="http://www.w3.org/2000/svg">
  <path d="M299.86 51.0745L293.063 52.2627L299.469 88.9084L306.266 87.7202L299.86 51.0745Z" fill="#4B2B61" />
  <path d="M256.569 53.4676L249.772 54.6558L256.178 91.3015L262.975 90.1133L256.569 53.4676Z" fill="#4B2B61" />
  <path d="M278.05 40.7066L265.146 42.9624L277.906 115.958L290.81 113.702L278.05 40.7066Z" fill="#4B2B61" />
  <path d="M290.704 113.7L277.804 115.9L277.604 114.7L285.404 113.4L272.804 41.6002L278.004 40.7002L290.704 113.7Z" fill="#2E1642" />
  <path d="M283.304 55.7002L265.104 58.9002C263.204 59.2002 263.704 62.2002 265.604 61.9002L283.804 58.7002C285.704 58.3002 285.204 55.3002 283.304 55.7002Z" fill="#FF1F17" />
  <path d="M284.404 62L266.204 65.2C264.304 65.5 264.804 68.5 266.704 68.2L284.904 65C286.804 64.6 286.304 61.6 284.404 62Z" fill="#FF1F17" />
  <path d="M285.504 68.2003L267.304 71.4003C265.404 71.7003 265.904 74.7003 267.804 74.4003L286.004 71.2003C287.904 70.9003 287.404 67.9003 285.504 68.2003Z" fill="#FF1F17" />
  <path d="M286.604 74.5001L268.404 77.7001C266.504 78.0001 267.004 81.0001 268.904 80.7001L287.104 77.5001C289.004 77.2001 288.504 74.2001 286.604 74.5001Z" fill="#FF1F17" />
  <path d="M287.704 80.7999L269.504 83.9999C267.604 84.2999 268.104 87.2999 270.004 86.9999L288.204 83.7999C290.104 83.4999 289.604 80.4999 287.704 80.7999Z" fill="#FF1F17" />
  <path d="M288.804 87.1002L270.604 90.3002C268.704 90.6002 269.204 93.6002 271.104 93.3002L289.304 90.1002C291.204 89.8002 290.704 86.8002 288.804 87.1002Z" fill="#FF1F17" />
  <path d="M289.904 93.3998L271.704 96.5998C269.804 96.8998 270.304 99.8998 272.204 99.5998L290.404 96.3998C292.304 96.0998 291.804 92.9998 289.904 93.3998Z" fill="#FF1F17" />
  <path d="M291.004 99.7001L272.804 102.9C270.904 103.2 271.404 106.2 273.304 105.9L291.504 102.7C293.404 102.4 292.904 99.3001 291.004 99.7001Z" fill="#FF1F17" />
  <path d="M282.204 49.3999L264.004 52.5999C262.104 52.8999 262.604 55.8999 264.504 55.5999L282.704 52.3999C284.604 51.9999 284.104 48.9999 282.204 49.3999Z" fill="#FF1F17" />
  <path d="M33.0358 100.729L39.833 101.917L46.2388 65.2718L39.4417 64.0836L33.0358 100.729Z" fill="#4B2B61" />
  <path d="M76.4382 103.013L83.2354 104.201L89.6412 67.555L82.844 66.3668L76.4382 103.013Z" fill="#4B2B61" />
  <path d="M48.582 126.545L61.4868 128.801L74.2468 55.8049L61.342 53.549L48.582 126.545Z" fill="#4B2B61" />
  <path d="M48.6045 126.6L61.5045 128.8L61.7045 127.6L53.9045 126.3L66.5045 54.5001L61.4045 53.6001L48.6045 126.6Z" fill="#2E1642" />
  <path d="M56.0046 68.6001L74.2046 71.8001C76.1046 72.1001 75.6046 75.1001 73.7046 74.8001L55.5046 71.6001C53.6046 71.2001 54.1046 68.2001 56.0046 68.6001Z" fill="#FF1F17" />
  <path d="M54.9045 74.8004L73.1045 78.0003C75.0045 78.3004 74.5045 81.3004 72.6045 81.0003L54.4045 77.8004C52.5045 77.5004 53.0045 74.5004 54.9045 74.8004Z" fill="#FF1F17" />
  <path d="M53.8044 81.1002L72.0044 84.3002C73.9044 84.6002 73.4044 87.6002 71.5044 87.3002L53.3044 84.1002C51.4044 83.8002 51.9044 80.8002 53.8044 81.1002Z" fill="#FF1F17" />
  <path d="M52.7043 87.4L70.9043 90.6C72.8043 90.9 72.3043 93.9 70.4043 93.6L52.2043 90.4C50.3043 90.1 50.8043 87.1 52.7043 87.4Z" fill="#FF1F17" />
  <path d="M51.6042 93.7003L69.8042 96.9003C71.7042 97.2003 71.2042 100.2 69.3042 99.9003L51.1042 96.7003C49.2042 96.4003 49.7042 93.4003 51.6042 93.7003Z" fill="#FF1F17" />
  <path d="M50.5046 100L68.7046 103.2C70.6046 103.5 70.1046 106.5 68.2046 106.2L50.0046 103C48.1046 102.7 48.6046 99.6004 50.5046 100Z" fill="#FF1F17" />
  <path d="M49.4045 106.3L67.6045 109.5C69.5045 109.8 69.0045 112.8 67.1045 112.5L48.9045 109.3C47.0045 109 47.5045 105.9 49.4045 106.3Z" fill="#FF1F17" />
  <path d="M48.3044 112.6L66.5044 115.8C68.4044 116.1 67.9044 119.1 66.0044 118.8L47.8044 115.6C45.9044 115.2 46.4044 112.2 48.3044 112.6Z" fill="#FF1F17" />
  <path d="M57.1042 62.3003L75.3042 65.5003C77.2042 65.8003 76.7042 68.8003 74.8042 68.5003L56.6042 65.3003C54.7042 64.9003 55.2042 61.9003 57.1042 62.3003Z" fill="#FF1F17" />
  <path d="M95.1666 132.838L101.274 140.502L174.704 81.9835L168.596 74.3199L95.1666 132.838Z" fill="#2E1642" />
  <path d="M169.1 74.2568L162.993 81.9204L236.422 140.439L242.53 132.775L169.1 74.2568Z" fill="#2E1642" />
  <path d="M110.374 134.026L228.274 134.026L228.274 126.326L110.374 126.326L110.374 134.026Z" fill="#2E1642" />
  <path d="M110.374 158.156L228.274 158.156L228.274 148.556L110.374 148.556L110.374 158.156Z" fill="#4B2B61" />
  <path d="M161.271 155.462L170.218 152.924L153.134 92.7031L144.188 95.2411L161.271 155.462Z" fill="#4B2B61" />
  <path d="M193.858 95.245L184.911 92.707L167.828 152.928L176.774 155.466L193.858 95.245Z" fill="#4B2B61" />
  <path d="M159.404 143.8H178.604C180.504 143.8 182.104 145.4 182.104 147.3V159.5C182.104 161.4 180.504 163 178.604 163H159.404C157.504 163 155.904 161.4 155.904 159.5V147.3C155.904 145.3 157.504 143.8 159.404 143.8Z" fill="#5F1021" />
  <path d="M155.904 152.5C156.204 155.5 154.404 163.1 159.404 163H178.604C183.604 163.1 181.804 155.5 182.104 152.5C182.104 154.4 180.504 156 178.604 156H159.404C157.504 156 155.904 154.5 155.904 152.5Z" fill="#4C081A" />
  <path d="M0.903809 61.3001C1.00381 65.5001 1.90381 69.4001 3.50381 70.8001C32.2038 70.4001 107.904 55.6001 130.104 109.6C131.704 110.6 137.104 111.3 144.404 111.7C166.104 113.1 204.604 112.1 207.904 109.6C245.804 55.6001 285.504 65.1001 335.604 68.2001C342.504 59.6001 321.704 41.9001 311.804 42.0001C294.404 40.9001 247.504 41.0001 246.904 41.0001C246.904 41.0001 233.304 15.5001 227.504 11.3001C221.704 7.10007 137.504 3.10007 76.0038 14.3001C69.9038 15.4001 67.6038 42.3001 67.6038 42.3001C67.6038 42.3001 9.8038 43.6001 4.8038 47.8001C1.5038 51.1001 1.00381 56.4001 0.903809 61.3001Z" fill="#5F1021" />
  <path d="M0.903809 54.3001C1.00381 58.5001 1.90381 62.4001 3.50381 63.8001C32.2038 63.4001 107.904 48.6001 130.104 102.6C131.704 103.6 137.104 104.3 144.404 104.7C166.104 106.1 204.604 105.1 207.904 102.6C245.804 48.6001 285.504 58.1001 335.604 61.2001C342.504 52.6001 321.704 34.9001 311.804 35.0001C294.404 33.9001 247.504 34.0001 246.904 34.0001C246.904 34.0001 233.304 8.50007 227.504 4.30007C221.704 0.100068 137.504 -3.89993 76.0038 7.30007C69.9038 8.40007 67.6038 35.3001 67.6038 35.3001C67.6038 35.3001 9.8038 36.6001 4.8038 40.8001C1.5038 44.1001 1.00381 49.4001 0.903809 54.3001Z" fill="currentColor" />
  <path opacity="0.25" d="M142.104 97.6002C135.904 97.1002 131.504 96.5002 130.004 95.6002C95.7039 24.6002 1.00391 71.9002 1.00391 51.2002C1.30391 47.2002 2.10389 43.3002 4.80389 40.7002C9.80389 36.5002 67.6039 35.2002 67.6039 35.2002C67.6039 35.2002 123.104 42.9002 142.104 97.6002Z" fill="white" />
  <path opacity="0.7" d="M0.903809 54.3001C0.903809 54.6001 0.903809 54.9001 0.903809 55.3001C1.20381 51.0001 1.9038 46.7001 4.8038 43.9001C9.8038 39.7001 67.6038 38.4001 67.6038 38.4001C67.6038 38.4001 69.9038 11.5001 76.0038 10.4001C137.504 -0.899933 221.704 3.20007 227.504 7.40007C233.304 11.6001 246.904 37.1001 246.904 37.1001C247.904 37.2001 294.004 37.0001 311.804 38.1001C321.604 38.8001 334.704 49.7001 336.904 59.0001C338.504 49.4001 321.804 35.4001 311.804 35.0001C294.404 33.9001 247.504 34.0001 246.904 34.0001C246.904 34.0001 233.304 8.50007 227.504 4.30007C221.704 0.100068 137.504 -3.89993 76.0038 7.30007C69.9038 8.40007 67.6038 35.3001 67.6038 35.3001C67.6038 35.3001 9.8038 36.6001 4.8038 40.8001C1.5038 44.1001 1.00381 49.4001 0.903809 54.3001Z" fill="white" />
  <path d="M0.904297 54.3C20.7043 55.7 25.3043 40.8 2.70428 43.8C1.30428 47 0.904297 50.9 0.904297 54.3Z" fill="#63DBEB" />
  <path d="M1.50439 48.1002C5.20439 47.2002 8.00437 45.6002 9.10437 43.7002C7.10437 43.7002 4.80438 43.8002 2.70438 43.9002C2.20438 45.1002 1.70439 46.5002 1.50439 48.1002Z" fill="#8FF5FF" />
  <path d="M0.904297 54.3C7.6043 55.4 19.6043 52 17.8043 46.5C16.6043 50.3 6.90428 52.9 1.10428 51.9C1.10428 51.5 1.10428 51.1 1.10428 50.7C1.00428 52 0.904297 53.2 0.904297 54.3Z" fill="#63DBEB" />
  <path d="M307.304 44.9C310.304 47.6 330.004 48.4 329.204 44.1C323.004 37.9 315.004 34.4 306.404 34.8C304.704 37.7 305.304 42.8 307.304 44.9Z" fill="#63DBEB" />
  <path d="M311.004 35C312.404 40.2 317.404 39.5 324.004 39.9C319.904 37.1 315.504 35.2 311.004 35Z" fill="#8FF5FF" />
  <path d="M307.304 44.9003C310.404 47.6003 329.804 48.4003 329.204 44.1003C322.804 44.7003 305.404 47.7003 305.504 37.8003C305.204 40.4003 305.904 43.4003 307.304 44.9003Z" fill="#63DBEB" />
  <path opacity="0.2" d="M240.504 37.7002C240.004 34.6002 229.004 11.1002 224.104 9.20015C219.304 7.20015 177.904 4.50015 173.704 7.10015C170.004 9.40015 194.904 83.9002 196.304 88.3002C196.904 90.3002 206.304 89.7002 207.804 88.3002C209.304 86.9002 212.104 75.4001 231.804 62.0001C248.904 50.4001 240.504 37.7002 240.504 37.7002Z" fill="black" />
  <path d="M136.304 13.1L141.504 30.1C142.004 31.7 143.504 32.8 145.204 32.8H169.004C171.604 32.8 173.404 30.3 172.704 27.9C172.704 27.7 167.304 11 167.304 10.8C166.804 9.19996 165.304 8.09996 163.604 8.09996H139.904C137.404 7.99996 135.504 10.6 136.304 13.1Z" fill="#63DBEB" />
  <path d="M150.504 8L165.004 32.7C168.504 33 173.804 32.8 172.704 27.8L161.104 8H150.504Z" fill="#8FF5FF" />
  <path d="M136.304 13.1C143.904 33.8 136.604 33.1 157.304 32.8L142.804 8.00004C139.404 7.60004 135.104 8.80004 136.304 13.1Z" fill="#8FF5FF" />
  <path d="M136.304 13.1L136.604 14C137.404 9.89996 161.104 12.7 163.704 11.9C165.404 11.9 166.904 13 167.404 14.6L172.504 30.7C174.404 29 167.604 12.8 167.404 10.8C166.904 9.19996 165.404 8.09996 163.704 8.09996H140.004C137.404 7.99996 135.504 10.6 136.304 13.1Z" fill="#63DBEB" />
  <path d="M180.104 17.3003L185.904 36.9003C186.604 38.8003 188.704 40.1003 191.104 40.1003C194.104 39.4003 231.604 42.0003 232.604 38.3003C233.604 37.2003 234.004 35.7003 233.404 34.3003L223.604 14.7003C222.904 12.8003 220.804 11.6003 218.404 11.6003H185.304C182.104 11.4003 178.904 14.1003 180.104 17.3003Z" fill="#63DBEB" />
  <path d="M206.304 11.5L223.104 40.1C225.804 40 230.904 40.7 232.604 38.3L216.904 11.5H206.304Z" fill="#8FF5FF" />
  <path d="M181.604 12.7003L197.704 40.2003H215.204L198.404 11.6003C195.704 11.9003 183.804 10.5003 181.604 12.7003Z" fill="#8FF5FF" />
  <path d="M180.104 17.3L180.304 18C181.504 12.7 214.704 16.3 218.404 15.3C220.804 15.3 222.904 16.6 223.604 18.4L233.204 37.5C235.904 35.4 224.004 16.7 223.604 14.6C222.904 12.7 220.804 11.5 218.404 11.5H185.304C181.604 11.5 179.004 14.4 180.104 17.3Z" fill="#63DBEB" />
  <path d="M91.9039 23.9002C98.2039 24.3002 105.404 25.9002 113.604 33.6002C114.404 34.4002 115.604 34.8002 116.704 34.8002H117.104L124.604 34.4002C128.404 34.4002 134.904 34.3002 133.304 28.6002L127.504 12.5002C126.604 9.60022 123.304 9.60022 120.804 9.90022C112.304 10.4002 100.404 11.1002 91.9039 11.6002C87.7039 11.7002 87.8039 16.6002 87.8039 19.7002C87.8039 21.8002 89.6039 23.8002 91.9039 23.9002Z" fill="#63DBEB" />
  <path d="M110.604 10.4002L124.604 34.3002C127.304 34.0002 132.604 34.7002 133.404 31.1002L120.904 9.7002L110.604 10.4002Z" fill="#8FF5FF" />
  <path d="M88.104 15.2003L93.204 24.0003C98.304 24.4003 106.104 26.4003 113.504 33.6003C114.404 34.5003 115.704 34.9003 117.004 34.7003L103.004 10.8003C99.704 11.6003 88.304 9.50029 88.104 15.2003Z" fill="#8FF5FF" />
  <path d="M87.9038 19.5C87.9038 19.9 87.9038 20.4 88.0038 20.8C87.8038 18.2 89.1038 15.5 92.0038 15.4L123.404 13.5C125.204 13.4 126.904 14.5 127.604 16.2L133.204 31.7C135.204 29.7 128.004 14.6 127.604 12.3C127.004 10.6 125.304 9.50004 123.404 9.60004L92.0038 11.5C87.9038 11.6 87.9038 16.5 87.9038 19.5Z" fill="#63DBEB" />
  <path opacity="0.35" d="M194.704 46.7003C196.304 47.1003 203.104 45.4003 203.004 48.5003C203.204 51.6003 196.304 49.9003 194.704 50.3003C192.304 50.4003 192.304 46.7003 194.704 46.7003Z" fill="black" />
  <path opacity="0.15" d="M0.903809 54.3002C1.00381 58.5002 1.90381 62.4002 3.50381 63.8002C31.9038 63.5002 107.904 48.6002 130.104 102.6C131.704 103.6 137.104 104.3 144.404 104.7C166.104 106.1 204.604 105.1 207.904 102.6C245.704 48.7002 285.504 58.0002 335.604 61.2002C337.504 59.5002 337.504 56.7002 336.204 53.6002C282.804 53.7002 250.604 38.1002 207.904 95.6002C204.604 98.2002 166.104 99.1002 144.404 97.7002C137.104 97.3002 131.704 96.5002 130.104 95.6002C95.3038 23.6002 -1.79621 73.3002 1.10379 50.2002C1.00379 51.6002 0.903809 53.0002 0.903809 54.3002Z" fill="black" />
</svg>