<svg width="50" viewBox="0 0 169 170" fill="none" xmlns="http://www.w3.org/2000/svg">
  <path d="M3.59978 77.6001C8.89978 77.0001 7.09978 69.5001 8.79978 65.8001C10.0998 61.6001 2.79978 61.4001 4.69978 57.0001C6.39978 54.4001 7.29978 45.6001 12.1998 47.8001C13.7998 48.5001 15.6998 47.8001 16.5998 46.3001C17.8998 42.0001 25.2998 37.7001 21.8998 33.1001C17.9998 29.5001 25.5998 25.0001 27.3998 22.5001C30.6998 19.0001 33.6998 25.6001 37.0998 22.8001C39.4998 21.0001 41.8998 19.3001 44.4998 17.8001C48.3998 15.7001 43.3998 10.4001 47.7998 8.7001L54.9998 5.6001C59.2998 3.6001 59.6998 10.8001 63.7998 9.5001C67.6998 7.4001 76.0998 9.6001 76.8998 4.0001C76.6998 -1.2999 85.2998 0.900099 88.2998 0.500099C93.0998 0.300099 90.4998 7.2001 94.8998 7.6001C97.8998 8.0001 100.8 8.6001 103.6 9.3001C107.8 10.6001 108 3.3001 112.4 5.3001C129.5 11.1001 117.1 12.0001 123.1 17.2001C126.1 18.9001 128.9 20.8001 131.6 22.8001C135 25.6001 138 19.0001 141.3 22.5001C143 25.1001 150.8 29.3001 146.8 33.1001C143.5 37.3001 150.1 41.2001 151.5 45.1001C153.6 49.0001 158.9 44.0001 160.6 48.4001C168.6 64.6001 159.2 56.4001 159.8 64.4001C160.7 67.7001 161.4 71.0001 161.8 74.4001C162.2 78.8001 169 76.2001 168.8 81.0001V88.8001C169 93.6001 162.1 91.0001 161.7 95.4001C162 99.5001 157.4 105.7 162.1 108.3C167 110.1 161.9 117.2 161.1 120.2C159.5 124.7 154.1 119.8 152.1 123.7C150.4 126.7 148.5 129.5 146.5 132.2C143.7 135.6 150.3 138.6 146.8 141.9L141.3 147.4C138 150.9 135 144.3 131.6 147.1C129.2 148.9 126.8 150.6 124.2 152.1C120.3 154.2 125.3 159.5 120.9 161.2C104.7 169.2 112.9 159.8 104.9 160.4C101.6 161.3 98.2998 162 94.8998 162.4C90.4998 162.8 93.0998 169.6 88.2998 169.4H80.4998C75.6998 169.6 78.2998 162.7 73.8998 162.3C70.8998 161.9 67.9998 161.3 65.1998 160.6C60.9998 159.3 60.7998 166.6 56.3998 164.6C39.2998 158.8 51.6998 157.9 45.6998 152.7C42.6998 151 39.8998 149.1 37.1998 147.1C33.7998 144.3 30.7998 150.9 27.4998 147.4C13.9998 135.4 25.7998 139.5 22.2998 132.2C19.1998 129.5 18.0998 121.8 12.8998 123.4C8.09978 125.6 6.79978 116.9 5.19978 114.3C3.19978 110 10.3998 109.6 9.09978 105.5C8.19978 102.2 7.49978 98.9001 7.09978 95.5001C6.69978 91.1001 -0.100223 93.7001 0.0997775 88.9001C0.699777 85.9001 -1.80022 77.4001 3.59978 77.6001Z" fill="#5F1021" />
  <path d="M42.8999 85.0003C43.7999 139.6 125.1 139.6 126 85.0003C125.1 30.4003 43.8999 30.4003 42.8999 85.0003Z" fill="#4C081A" />
  <path d="M84.4999 24.3003C164.3 25.7003 164.3 144.3 84.4999 145.7C4.6999 144.3 4.6999 25.8003 84.4999 24.3003ZM84.4999 141.9C159.2 140.6 159.2 29.6003 84.4999 28.2003C9.79991 29.5003 9.79991 140.5 84.4999 141.9Z" fill="#4C081A" />
  <path opacity="0.6" d="M0.0995404 81.1003V88.9003C-0.10046 93.7003 6.79954 91.1003 7.19954 95.5003C7.59954 99.3003 8.69954 102.8 9.29954 106.5C9.39954 110 3.39954 110.4 5.29954 114.4C6.89954 117 8.19954 125.7 12.9995 123.5C14.5995 122.8 16.4995 123.4 17.3995 125C18.6995 128.9 25.4995 132.8 22.0995 137C18.2995 140.6 25.7995 145.1 27.5995 147.6C30.8995 151.1 33.8995 144.5 37.2995 147.3C39.9995 149.4 42.8995 151.2 45.7995 152.9C51.8995 158.1 39.3995 159 56.4995 164.8C60.8995 166.7 61.0995 159.5 65.2995 160.8C68.0995 161.5 71.0995 162.1 73.9995 162.5C78.3995 162.9 75.8995 169.7 80.5995 169.6H88.3995C93.1995 169.8 90.5995 162.9 94.9995 162.5C98.3995 162 101.8 161.4 105 160.5C113.1 160 104.9 169.3 121 161.3C125.5 159.6 120.5 154.3 124.3 152.2C126.8 150.7 129.3 149 131.7 147.2C139 143.7 134.9 155.4 146.9 142C150.4 138.8 143.8 135.7 146.6 132.3C148.7 129.6 150.5 126.8 152.2 123.8C157.4 117.7 158.3 130.2 164.1 113.1C166 108.8 158.8 108.5 160.1 104.3C160.8 101.5 161.4 98.5003 161.8 95.6003C162.2 91.2003 169 93.8003 168.9 89.0003V81.2003C169.1 76.4003 162.2 79.0003 161.8 74.6003C161.4 70.9003 160.3 67.3003 159.6 63.7003C159.5 60.2003 165.5 59.9003 163.6 55.8003C162.1 54.0003 161.1 46.2003 157.7 46.4003C177.9 166.5 -7.30046 168 10.8995 47.5003C9.49954 47.5003 8.19954 48.4003 7.69954 49.7003C7.39954 50.7003 4.29954 57.4003 4.49954 58.3003C4.29954 61.7003 10.0995 61.9003 8.79954 65.7003C8.09954 68.5003 7.49954 71.5003 7.09954 74.4003C6.69954 78.9003 -0.10046 76.4003 0.0995404 81.1003Z" fill="#4C081A" />
  <path d="M49 84.9999C50.5 131.9 118.5 131.9 119.9 84.9999C118.5 38.1999 50.5 38.1999 49 84.9999Z" fill="#3D332E" />
  <path d="M83.6997 86.9L80.6997 117.6C83.0997 117.9 85.6997 117.9 88.1997 117.6L85.1997 86.9C85.1997 86.5 85.0997 85.5 84.9997 85.1C84.9997 84.7 85.0997 83.7 85.1997 83.3L88.1997 52.6C85.7997 52.3 83.1997 52.3 80.6997 52.6C80.7997 55 84.2997 85.1 83.6997 86.9Z" fill="#63534C" />
  <path d="M51.7998 85.0002C51.7998 86.3002 51.8998 87.5002 51.9998 88.7002L82.6998 85.7002C83.0998 85.7002 84.0998 85.6002 84.4998 85.5002C84.8998 85.5002 85.8998 85.6002 86.2998 85.7002L117 88.7002C117.3 86.3002 117.3 83.7002 117 81.2002L86.2998 84.2002C85.8998 84.2002 84.8998 84.3002 84.4998 84.4002C84.0998 84.4002 83.0998 84.3002 82.6998 84.2002L51.9998 81.2002C51.8998 82.5002 51.7998 83.8002 51.7998 85.0002Z" fill="#63534C" />
  <path d="M58.8999 105.4C60.4999 107.4 62.1999 109.1 64.1999 110.7L83.7999 86.9C83.9999 86.7 84.6999 85.9 84.7999 85.7C84.8999 85.6 84.9999 85.4 85.0999 85.4C85.2999 85.3 86.0999 84.6 86.2999 84.4L110.1 64.8C108.5 62.8 106.8 61.1 104.8 59.5L85.1999 83.3C84.9999 83.5 84.2999 84.3 84.1999 84.5C84.0999 84.6 83.9999 84.8 83.8999 84.8C83.6999 84.9 82.8999 85.6 82.6999 85.8L58.8999 105.4Z" fill="#63534C" />
  <path d="M58.8999 64.6999L82.6999 84.2999C83.0999 84.6999 83.8999 85.1999 84.2999 85.6999C84.3999 85.8999 85.0999 86.6999 85.2999 86.8999L104.9 110.7C106.9 109.1 108.6 107.4 110.2 105.4L86.3999 85.7999C85.9999 85.3999 85.1999 84.8999 84.7999 84.3999C84.6999 84.1999 83.9999 83.3999 83.7999 83.1999L64.1999 59.3999C62.1999 60.9999 60.3999 62.6999 58.8999 64.6999Z" fill="#63534C" />
  <path d="M88.3 51.8001C129.7 57.3001 126.3 117.8 84.5 118.6C37.8 116.7 41.7 48.2001 88.3 51.8001ZM88.1 116.8C127.6 111.5 124.3 53.8001 84.5 53.1001C39.9 54.8001 43.7 120.1 88.1 116.8Z" fill="#63534C" />
  <path d="M75.5 84.9999C75.6 96.7999 93.5 96.7999 93.5 84.9999C93.5 73.1999 75.5 73.1999 75.5 84.9999Z" fill="#42252E" />
  <path opacity="0.5" d="M49 85C50.8 137 129 128 119 77C115.7 116.3 57.4 119.8 49.2 81.5C49.1 82.7 49 83.9 49 85Z" fill="#231914" />
</svg>